<mxfile host="app.diagrams.net" modified="2024-04-03T12:29:57.713Z" agent="Mozilla/5.0 (Windows NT 10.0; Win64; x64) AppleWebKit/537.36 (KHTML, like Gecko) Chrome/123.0.0.0 Safari/537.36" etag="92UnrIpbzMshwBL4szFi" version="24.2.1" type="github">
  <diagram name="Page-1" id="tPZq3gX7HFUnjrdLQykX">
    <mxGraphModel dx="1370" dy="1436" grid="1" gridSize="10" guides="1" tooltips="1" connect="1" arrows="1" fold="1" page="1" pageScale="1" pageWidth="850" pageHeight="1100" math="0" shadow="0">
      <root>
        <mxCell id="0" />
        <mxCell id="1" parent="0" />
        <mxCell id="z-eFOeHiUukNePRb0q4e-1" value="" style="rounded=0;whiteSpace=wrap;html=1;fillColor=#f8cecc;strokeColor=#b85450;" vertex="1" parent="1">
          <mxGeometry x="-170" y="-700" width="100" height="190" as="geometry" />
        </mxCell>
        <mxCell id="z-eFOeHiUukNePRb0q4e-2" value="Fishman&lt;br&gt;TriplePlay" style="rounded=0;whiteSpace=wrap;html=1;fillColor=#d5e8d4;strokeColor=#82b366;" vertex="1" parent="1">
          <mxGeometry x="-160" y="-620" width="80" height="50" as="geometry" />
        </mxCell>
        <mxCell id="z-eFOeHiUukNePRb0q4e-3" style="edgeStyle=orthogonalEdgeStyle;rounded=0;orthogonalLoop=1;jettySize=auto;html=1;fillColor=default;strokeWidth=2;strokeColor=#666666;" edge="1" parent="1" source="z-eFOeHiUukNePRb0q4e-5" target="z-eFOeHiUukNePRb0q4e-16">
          <mxGeometry relative="1" as="geometry">
            <Array as="points">
              <mxPoint x="-50" y="-540" />
              <mxPoint x="-50" y="-500" />
              <mxPoint x="-120" y="-500" />
            </Array>
          </mxGeometry>
        </mxCell>
        <mxCell id="z-eFOeHiUukNePRb0q4e-4" value="Audio" style="edgeLabel;html=1;align=center;verticalAlign=middle;resizable=0;points=[];" vertex="1" connectable="0" parent="z-eFOeHiUukNePRb0q4e-3">
          <mxGeometry x="-0.2349" y="-1" relative="1" as="geometry">
            <mxPoint x="11" y="-15" as="offset" />
          </mxGeometry>
        </mxCell>
        <mxCell id="z-eFOeHiUukNePRb0q4e-5" value="Magnetic&amp;nbsp;&lt;br&gt;Pickups" style="rounded=0;whiteSpace=wrap;html=1;fillColor=#dae8fc;strokeColor=#6c8ebf;" vertex="1" parent="1">
          <mxGeometry x="-160" y="-560" width="80" height="40" as="geometry" />
        </mxCell>
        <mxCell id="z-eFOeHiUukNePRb0q4e-6" value="" style="rounded=0;whiteSpace=wrap;html=1;fillColor=#e1d5e7;strokeColor=#9673a6;" vertex="1" parent="1">
          <mxGeometry x="-20" y="-700" width="120" height="190" as="geometry" />
        </mxCell>
        <mxCell id="z-eFOeHiUukNePRb0q4e-8" style="edgeStyle=orthogonalEdgeStyle;rounded=0;orthogonalLoop=1;jettySize=auto;html=1;exitX=1;exitY=0.5;exitDx=0;exitDy=0;fillColor=default;strokeWidth=2;strokeColor=#666666;" edge="1" parent="1" source="z-eFOeHiUukNePRb0q4e-10" target="z-eFOeHiUukNePRb0q4e-18">
          <mxGeometry relative="1" as="geometry">
            <Array as="points">
              <mxPoint x="130" y="-570" />
            </Array>
          </mxGeometry>
        </mxCell>
        <mxCell id="z-eFOeHiUukNePRb0q4e-9" value="MIDI" style="edgeLabel;html=1;align=center;verticalAlign=middle;resizable=0;points=[];" vertex="1" connectable="0" parent="z-eFOeHiUukNePRb0q4e-8">
          <mxGeometry x="-0.04" y="1" relative="1" as="geometry">
            <mxPoint x="-1" y="4" as="offset" />
          </mxGeometry>
        </mxCell>
        <mxCell id="z-eFOeHiUukNePRb0q4e-10" value="VST&lt;br&gt;Plugin" style="rounded=0;whiteSpace=wrap;html=1;fillColor=#d5e8d4;strokeColor=#82b366;" vertex="1" parent="1">
          <mxGeometry x="-10" y="-610" width="100" height="80" as="geometry" />
        </mxCell>
        <mxCell id="z-eFOeHiUukNePRb0q4e-11" style="edgeStyle=orthogonalEdgeStyle;rounded=0;orthogonalLoop=1;jettySize=auto;html=1;fillColor=default;strokeWidth=2;strokeColor=#666666;exitX=0.5;exitY=1;exitDx=0;exitDy=0;" edge="1" parent="1" source="z-eFOeHiUukNePRb0q4e-10" target="z-eFOeHiUukNePRb0q4e-17">
          <mxGeometry relative="1" as="geometry">
            <Array as="points" />
            <mxPoint x="40" y="-540" as="sourcePoint" />
          </mxGeometry>
        </mxCell>
        <mxCell id="z-eFOeHiUukNePRb0q4e-12" value="OSC" style="edgeLabel;html=1;align=center;verticalAlign=middle;resizable=0;points=[];" vertex="1" connectable="0" parent="z-eFOeHiUukNePRb0q4e-11">
          <mxGeometry x="-0.1267" y="-1" relative="1" as="geometry">
            <mxPoint x="-6" y="46" as="offset" />
          </mxGeometry>
        </mxCell>
        <mxCell id="z-eFOeHiUukNePRb0q4e-14" value="&lt;u&gt;&amp;nbsp;Guitar&amp;nbsp;&lt;/u&gt;" style="text;html=1;strokeColor=none;fillColor=none;align=center;verticalAlign=middle;whiteSpace=wrap;rounded=0;labelBackgroundColor=none;" vertex="1" parent="1">
          <mxGeometry x="-145" y="-700" width="50" height="20" as="geometry" />
        </mxCell>
        <mxCell id="z-eFOeHiUukNePRb0q4e-15" value="&lt;u&gt;&amp;nbsp;Raspberry Pi 4&amp;nbsp;&lt;/u&gt;" style="text;html=1;strokeColor=none;fillColor=none;align=center;verticalAlign=middle;whiteSpace=wrap;rounded=0;labelBackgroundColor=none;" vertex="1" parent="1">
          <mxGeometry x="-7.5" y="-700" width="95" height="20" as="geometry" />
        </mxCell>
        <mxCell id="z-eFOeHiUukNePRb0q4e-16" value="Guitar Amplifier" style="rounded=0;whiteSpace=wrap;html=1;labelBackgroundColor=none;fillColor=#fff2cc;strokeColor=#d6b656;" vertex="1" parent="1">
          <mxGeometry x="-170" y="-470" width="110" height="50" as="geometry" />
        </mxCell>
        <mxCell id="z-eFOeHiUukNePRb0q4e-17" value="Stage equipment/ lights/ smoke machines, etc." style="rounded=0;whiteSpace=wrap;html=1;labelBackgroundColor=none;fillColor=#f8cecc;strokeColor=#b85450;" vertex="1" parent="1">
          <mxGeometry x="-50" y="-470" width="120" height="50" as="geometry" />
        </mxCell>
        <mxCell id="z-eFOeHiUukNePRb0q4e-18" value="&lt;span style=&quot;font-weight: 400;&quot;&gt;Synthesizer&lt;/span&gt;" style="rounded=0;whiteSpace=wrap;html=1;labelBackgroundColor=none;fontStyle=1;fillColor=#dae8fc;strokeColor=#6c8ebf;" vertex="1" parent="1">
          <mxGeometry x="80" y="-470" width="100" height="50" as="geometry" />
        </mxCell>
        <mxCell id="z-eFOeHiUukNePRb0q4e-19" style="edgeStyle=orthogonalEdgeStyle;rounded=0;orthogonalLoop=1;jettySize=auto;html=1;exitX=1;exitY=0.5;exitDx=0;exitDy=0;entryX=0;entryY=0.5;entryDx=0;entryDy=0;fillColor=default;strokeWidth=2;strokeColor=#666666;" edge="1" parent="1" source="z-eFOeHiUukNePRb0q4e-2" target="z-eFOeHiUukNePRb0q4e-10">
          <mxGeometry relative="1" as="geometry">
            <Array as="points">
              <mxPoint x="-60" y="-595" />
              <mxPoint x="-60" y="-570" />
            </Array>
          </mxGeometry>
        </mxCell>
        <mxCell id="z-eFOeHiUukNePRb0q4e-20" value="&amp;nbsp;MIDI&amp;nbsp;" style="edgeLabel;html=1;align=center;verticalAlign=middle;resizable=0;points=[];" vertex="1" connectable="0" parent="z-eFOeHiUukNePRb0q4e-19">
          <mxGeometry x="0.1605" relative="1" as="geometry">
            <mxPoint x="10" as="offset" />
          </mxGeometry>
        </mxCell>
        <mxCell id="z-eFOeHiUukNePRb0q4e-22" style="edgeStyle=orthogonalEdgeStyle;rounded=0;orthogonalLoop=1;jettySize=auto;html=1;fillColor=default;strokeWidth=2;strokeColor=#666666;entryX=0;entryY=0.75;entryDx=0;entryDy=0;" edge="1" parent="1" target="z-eFOeHiUukNePRb0q4e-10">
          <mxGeometry relative="1" as="geometry">
            <Array as="points">
              <mxPoint x="-50" y="-550" />
            </Array>
            <mxPoint x="-50" y="-540" as="sourcePoint" />
            <mxPoint x="-20" y="-640" as="targetPoint" />
          </mxGeometry>
        </mxCell>
        <mxCell id="z-eFOeHiUukNePRb0q4e-24" value="IMU" style="rounded=0;whiteSpace=wrap;html=1;fillColor=#fff2cc;strokeColor=#d6b656;" vertex="1" parent="1">
          <mxGeometry x="-160" y="-680" width="80" height="50" as="geometry" />
        </mxCell>
        <mxCell id="z-eFOeHiUukNePRb0q4e-25" style="edgeStyle=orthogonalEdgeStyle;rounded=0;orthogonalLoop=1;jettySize=auto;html=1;exitX=1;exitY=0.5;exitDx=0;exitDy=0;entryX=0;entryY=0.25;entryDx=0;entryDy=0;fillColor=default;strokeWidth=2;strokeColor=#666666;" edge="1" parent="1" target="z-eFOeHiUukNePRb0q4e-10">
          <mxGeometry relative="1" as="geometry">
            <mxPoint x="-80" y="-655" as="sourcePoint" />
            <mxPoint x="-10" y="-630" as="targetPoint" />
            <Array as="points">
              <mxPoint x="-40" y="-655" />
              <mxPoint x="-40" y="-590" />
            </Array>
          </mxGeometry>
        </mxCell>
        <mxCell id="z-eFOeHiUukNePRb0q4e-27" value="Gestural&lt;div&gt;Data&lt;/div&gt;" style="edgeLabel;html=1;align=center;verticalAlign=middle;resizable=0;points=[];" vertex="1" connectable="0" parent="1">
          <mxGeometry x="-30.11430612243862" y="-540" as="geometry">
            <mxPoint x="-14" y="-82" as="offset" />
          </mxGeometry>
        </mxCell>
      </root>
    </mxGraphModel>
  </diagram>
</mxfile>
